#!OML:ASF F:\VICON\USERDATA\INSTALL\rory3\rory3.ASF
:FULLY-SPECIFIED
:DEGREES
157
root 4.3041 17.8555 1.30104 -164.176 -36.6351 172.47
lowerback -7.23679 -2.45631 -5.95297
upperback -2.40234 -2.98632 -1.69038
thorax 1.76869 -1.56343 1.32322
lowerneck -18.544 0.158388 1.52902
upperneck 22.157 -0.447861 -0.523384
head 10.1302 -0.273535 -0.526988
rclavicle -6.96989e-014 2.87244e-014
rhumerus -37.7874 7.24894 -89.486
rradius 31.2137
rwrist 2.46831
rhand -22.2588 10.1826
rfingers 7.12502
rthumb 4.15885 -19.7566
lclavicle -6.96989e-014 2.87244e-014
lhumerus -36.3724 -17.0941 89.1386
lradius 35.8038
lwrist 11.5376
lhand -10.8228 26.1452
lfingers 7.12502
lthumb 15.1912 55.5675
rfemur -38.6398 -4.85496 15.3416
rtibia 21.162
rfoot -9.93941 -0.810098
rtoes -12.9068
lfemur -0.282146 10.3711 -28.2441
ltibia 17.7348
lfoot -20.2278 -15.3388
ltoes -14.7033
158
root 4.23077 17.8646 1.16956 -164.444 -37.0514 172.742
lowerback -7.28919 -2.53174 -5.59653
upperback -2.33456 -3.09595 -1.57032
thorax 1.86541 -1.61638 1.23439
lowerneck -18.4759 0.11683 1.56868
upperneck 21.9906 -0.477519 -0.640915
head 10.0567 -0.295509 -0.577475
rclavicle 4.70871e-014 -1.39149e-015
rhumerus -37.6778 7.17484 -89.3706
rradius 30.9193
rwrist 2.70957
rhand -22.1497 10.1548
rfingers 7.12502
rthumb 4.26424 -19.7823
lclavicle 4.70871e-014 -1.39149e-015
lhumerus -36.4751 -16.637 89.0421
lradius 34.7772
lwrist 11.016
lhand -10.7983 26.1338
lfingers 7.12502
lthumb 15.2148 55.5543
rfemur -38.2663 -4.95428 15.5846
rtibia 21.3993
rfoot -8.21795 -1.0602
rtoes -11.6126
lfemur 0.180778 9.80488 -27.7216
ltibia 18.0877
lfoot -20.1009 -15.1048
ltoes -15.5315
159
root 4.15638 17.8741 1.03966 -164.707 -37.3157 173.052
lowerback -7.36377 -2.53099 -5.2284
upperback -2.28075 -3.10692 -1.47809
thorax 1.95075 -1.62035 1.11904
lowerneck -18.4622 0.080393 1.67642
upperneck 21.8997 -0.521581 -0.770203
head 10.0203 -0.320448 -0.646107
rclavicle 2.97183e-014 3.24019e-014
rhumerus -37.515 6.75497 -89.131
rradius 30.4909
rwrist 3.26624
rhand -22.0656 10.3966
rfingers 7.12502
rthumb 4.34539 -19.5388
lclavicle 2.97183e-014 3.24019e-014
lhumerus -36.5101 -16.0478 88.8507
lradius 33.6521
lwrist 10.2657
lhand -10.5293 25.9541
lfingers 7.12502
lthumb 15.4739 55.3548
rfemur -38.1395 -5.11661 15.9047
rtibia 21.9062
rfoot -6.87312 -0.667545
rtoes -10.239
lfemur 0.744691 9.25239 -27.2735
ltibia 18.1456
lfoot -19.7612 -14.7157
ltoes -16.5991
160
root 4.08264 17.8819 0.912983 -165.016 -37.3218 173.3
lowerback -7.22449 -2.44078 -4.96851
upperback -2.28718 -3.01044 -1.38271
thorax 1.85418 -1.5672 1.089
lowerneck -18.4904 0.0695566 1.70485
upperneck 21.9212 -0.519916 -0.870568
head 10.0327 -0.329095 -0.686199
rclavicle 1.50207e-014 -7.55382e-015
rhumerus -37.5057 6.45864 -88.8848
rradius 30.1442
rwrist 3.67201
rhand -22.0032 10.441
rfingers 7.12502
rthumb 4.40565 -19.4932
lclavicle 1.50207e-014 -7.55382e-015
lhumerus -36.6195 -15.2625 88.7227
lradius 32.4995
lwrist 9.43641
lhand -10.4688 25.8975
lfingers 7.12502
lthumb 15.5322 55.2937
rfemur -37.8839 -4.93411 16.0216
rtibia 22.378
rfoot -5.75154 -0.439993
rtoes -9.48219
lfemur 1.28941 8.74723 -27.0034
ltibia 18.3105
lfoot -19.4269 -14.0717
ltoes -17.8388
161
root 4.00043 17.8956 0.778476 -165.505 -37.5522 173.949
lowerback -7.32452 -2.40943 -4.29077
upperback -2.23828 -3.00093 -1.19779
thorax 1.93775 -1.55861 0.897716
lowerneck -18.5345 0.0295617 1.65104
upperneck 21.9234 -0.558451 -0.871979
head 10.0413 -0.350891 -0.683158
rclavicle 3.2054e-014 -4.87022e-015
rhumerus -37.3754 6.13629 -88.6376
rradius 29.6779
rwrist 4.03003
rhand -22.0956 10.4196
rfingers 7.12502
rthumb 4.31645 -19.5164
lclavicle 3.2054e-014 -4.87022e-015
lhumerus -36.6834 -14.5598 88.5984
lradius 31.4192
lwrist 8.78965
lhand -10.6017 26.1035
lfingers 7.12502
lthumb 15.4041 55.5096
rfemur -37.5513 -5.15824 16.6836
rtibia 22.8301
rfoot -4.60973 -0.0372402
rtoes -9.34352
lfemur 1.63586 8.24061 -26.322
ltibia 18.6558
lfoot -18.737 -13.7939
ltoes -17.8902
162
root 3.91926 17.9092 0.639822 -165.932 -37.5792 174.329
lowerback -7.41329 -2.33021 -3.94654
upperback -2.1387 -2.90516 -1.07153
thorax 2.0762 -1.50911 0.838617
lowerneck -18.5862 -0.0182375 1.68106
upperneck 21.9688 -0.615 -0.954803
head 10.0659 -0.384429 -0.725836
rclavicle -2.69928e-014 2.90723e-014
rhumerus -37.0459 5.4222 -88.1887
rradius 28.8389
rwrist 4.8378
rhand -22.1054 10.8134
rfingers 7.12502
rthumb 4.307 -19.1228
lclavicle -2.69928e-014 2.90723e-014
lhumerus -36.7053 -13.7953 88.3927
lradius 30.2847
lwrist 8.01602
lhand -10.6624 26.1074
lfingers 7.12502
lthumb 15.3457 55.518
rfemur -37.117 -5.28831 17.1073
rtibia 23.3471
rfoot -3.78118 0.376009
rtoes -8.16261
lfemur 1.94732 7.88888 -25.8635
ltibia 19.1747
lfoot -17.738 -13.8151
ltoes -16.887
163
root 3.84498 17.9231 0.498246 -166.318 -37.464 174.604
lowerback -7.40219 -2.23511 -3.86296
upperback -2.10338 -2.78102 -0.897108
thorax 2.10611 -1.44474 0.983198
lowerneck -18.4913 -0.0545569 1.62242
upperneck 21.9535 -0.628719 -1.03405
head 10.0421 -0.406215 -0.745483
rclavicle 8.93233e-015 1.78774e-014
rhumerus -36.8896 5.06168 -87.7762
rradius 28.1628
rwrist 5.49953
rhand -22.0145 11.123
rfingers 7.12502
rthumb 4.3948 -18.8114
lclavicle 8.93233e-015 1.78774e-014
lhumerus -36.8196 -12.8571 88.1875
lradius 29.1241
lwrist 7.13175
lhand -10.5611 26.0479
lfingers 7.12502
lthumb 15.4432 55.451
rfemur -36.6566 -5.00605 17.3117
rtibia 23.9277
rfoot -3.8532 0.443587
rtoes -6.59088
lfemur 2.23316 7.68568 -25.5065
ltibia 19.8549
lfoot -16.9995 -13.5169
ltoes -18.326
164
root 3.77466 17.9419 0.356272 -166.589 -37.3694 174.823
lowerback -7.48794 -2.168 -3.79492
upperback -2.0724 -2.69036 -0.773819
thorax 2.1846 -1.39904 1.07678
lowerneck -18.4066 -0.100984 1.55284
upperneck 21.9093 -0.680115 -1.00166
head 10.01 -0.432241 -0.728847
rclavicle 1.30732e-013 1.75676e-014
rhumerus -36.8476 4.96569 -87.5838
rradius 27.7793
rwrist 5.8935
rhand -21.9744 11.0268
rfingers 7.12502
rthumb 4.43348 -18.9068
lclavicle 1.30732e-013 1.75676e-014
lhumerus -36.9952 -11.9127 87.8657
lradius 28.2113
lwrist 6.31175
lhand -10.2841 26.0713
lfingers 7.12502
lthumb 15.7101 55.4536
rfemur -36.2562 -4.72893 17.4526
rtibia 24.5638
rfoot -4.36805 0.500056
rtoes -5.34989
lfemur 2.36334 7.60819 -25.1905
ltibia 20.701
lfoot -16.5232 -13.0036
ltoes -22.3752
165
root 3.70426 17.9576 0.218597 -166.699 -37.3652 175.033
lowerback -7.7199 -2.11401 -3.65406
upperback -2.05199 -2.61834 -0.694726
thorax 2.32877 -1.36437 1.07721
lowerneck -18.4943 -0.127479 1.5713
upperneck 22.009 -0.737258 -0.962351
head 10.0615 -0.453006 -0.727441
rclavicle 4.53571e-014 -2.00276e-014
rhumerus -36.6945 4.55049 -87.3297
rradius 27.397
rwrist 6.47652
rhand -21.8747 10.9646
rfingers 7.12502
rthumb 4.52977 -18.9669
lclavicle 4.53571e-014 -2.00276e-014
lhumerus -37.1559 -11.377 87.6664
lradius 27.4161
lwrist 5.88203
lhand -10.1776 26.2489
lfingers 7.12502
lthumb 15.8127 55.6231
rfemur -36.0554 -4.63911 17.6569
rtibia 25.2269
rfoot -4.6158 0.834801
rtoes -3.87016
lfemur 2.25305 7.53323 -24.8545
ltibia 21.67
lfoot -15.6706 -12.9077
ltoes -23.5737
166
root 3.64156 17.9726 0.08533 -166.785 -37.3909 175.196
lowerback -7.78003 -2.07147 -3.57629
upperback -2.09346 -2.5686 -0.631625
thorax 2.31655 -1.33909 1.10257
lowerneck -18.5282 -0.150406 1.57927
upperneck 22.1567 -0.802362 -0.878852
head 10.1204 -0.474751 -0.710289
rclavicle -3.8499e-015 6.95746e-015
rhumerus -36.653 4.36588 -87.2059
rradius 27.0653
rwrist 6.83284
rhand -21.7697 11.0646
rfingers 7.12502
rthumb 4.63117 -18.8648
lclavicle -3.8499e-015 6.95746e-015
lhumerus -37.4009 -10.9223 87.4484
lradius 26.7507
lwrist 5.47992
lhand -10.0509 26.4463
lfingers 7.12502
lthumb 15.9347 55.8108
rfemur -35.8607 -4.40387 17.7956
rtibia 25.8443
rfoot -4.86615 1.09225
rtoes -1.16097
lfemur 1.9997 7.45081 -24.4924
ltibia 22.8062
lfoot -14.371 -13.1467
ltoes -21.6893
167
root 3.57038 17.9957 -0.0571178 -166.858 -37.4499 175.375
lowerback -8.05686 -2.0836 -3.45859
upperback -2.12014 -2.5866 -0.54759
thorax 2.44222 -1.34979 1.1117
lowerneck -18.4014 -0.139789 1.55526
upperneck 22.2444 -0.806249 -0.813167
head 10.1286 -0.474515 -0.68438
rclavicle -3.03178e-014 4.96962e-017
rhumerus -36.6211 4.36703 -87.1575
rradius 26.7495
rwrist 7.11751
rhand -21.6851 11.0813
rfingers 7.12502
rthumb 4.71287 -18.8462
lclavicle -3.03178e-014 4.96962e-017
lhumerus -37.7318 -10.2943 87.1896
lradius 26.2473
lwrist 4.95786
lhand -9.57546 26.4707
lfingers 7.12502
lthumb 16.3924 55.7981
rfemur -35.5518 -4.37175 18.0064
rtibia 26.3282
rfoot -5.33454 1.4895
rtoes 0.257024
lfemur 1.67178 7.41109 -24.0806
ltibia 24.0709
lfoot -13.0348 -13.5168
ltoes -19.6554
168
root 3.50873 18.0173 -0.196236 -166.842 -37.4867 175.336
lowerback -8.236 -2.10479 -3.62506
upperback -2.12657 -2.5964 -0.48448
thorax 2.5452 -1.35733 1.26207
lowerneck -18.4093 -0.136821 1.55114
upperneck 22.4245 -0.819909 -0.788383
head 10.1949 -0.481808 -0.67907
rclavicle 3.50669e-014 1.46604e-014
rhumerus -36.5375 4.34891 -87.1012
rradius 26.4528
rwrist 7.33996
rhand -21.6231 11.041
rfingers 7.12502
rthumb 4.77272 -18.8853
lclavicle 3.50669e-014 1.46604e-014
lhumerus -38.0976 -9.81716 87.0162
lradius 25.936
lwrist 4.62489
lhand -9.34388 26.8094
lfingers 7.12502
lthumb 16.6154 56.1182
rfemur -35.1987 -4.19265 18.0044
rtibia 26.6981
rfoot -5.83325 1.62965
rtoes -0.335732
lfemur 1.22847 7.31629 -23.8141
ltibia 25.4769
lfoot -11.4647 -13.9606
ltoes -18.8792
